<?xml version="1.0" standalone="no"?>
<!DOCTYPE svg PUBLIC "-//W3C//DTD SVG 20010904//EN"
 "http://www.w3.org/TR/2001/REC-SVG-20010904/DTD/svg10.dtd">
<svg version="1.0" xmlns="http://www.w3.org/2000/svg"
 width="700.000000pt" height="700.000000pt" viewBox="0 0 700.000000 700.000000"
 preserveAspectRatio="xMidYMid meet">
<metadata>
Created by potrace 1.14, written by Peter Selinger 2001-2017
</metadata>
<g transform="translate(0.000000,700.000000) scale(0.100000,-0.100000)"
fill="#000000" stroke="none">
<path d="M1505 6719 c-533 -45 -991 -405 -1160 -912 -75 -226 -70 -52 -70
-2347 0 -1967 1 -2059 19 -2155 103 -552 496 -963 1050 -1098 l91 -22 2105 0
c1998 0 2109 1 2190 18 485 104 870 447 1023 912 65 198 61 65 64 1772 3 1532
3 1551 -16 1546 -19 -5 -19 6 -24 549 -4 525 -5 558 -26 652 -61 274 -174 487
-358 677 -155 160 -335 274 -543 343 -228 76 -54 70 -2265 72 -1089 1 -2025
-2 -2080 -7z m720 -1732 l870 -323 -4 -255 c-2 -139 -4 -255 -6 -257 -2 -2
-1857 -652 -1862 -652 -2 0 -3 116 -3 258 l0 257 468 150 c257 82 536 171 620
198 85 27 150 53 145 56 -4 4 -283 97 -620 207 l-612 199 -1 267 0 268 68 -25
c37 -14 459 -171 937 -348z m3555 -3072 l0 -275 -925 0 -925 0 0 275 0 275
925 0 925 0 0 -275z"/>
</g>
</svg>
